<svg data-name="Layer 1" xmlns="http://www.w3.org/2000/svg" viewBox="0 0 97.53 97.53"><title>logo</title><circle cx="48.77" cy="48.77" r="33.63" fill="#fff"/><path d="M91.62 25.51a48.76 48.76 0 1 0-65.37 66.51l1 .53a49 49 0 0 0 15.64 4.63l1.17.13a48.76 48.76 0 0 0 47.51-71.8zM39.43 80.3a32.89 32.89 0 1 1 25-2.63 32.67 32.67 0 0 1-25 2.63z" fill="#6d1410"/><path d="M89.77 26.52a46.63 46.63 0 1 0-62.54 63.62l1 .51a46.9 46.9 0 0 0 15 4.43l1.12.12a46.64 46.64 0 0 0 45.42-68.68zM39.11 81.37a34 34 0 1 1 25.88-2.72 33.77 33.77 0 0 1-25.88 2.72z" fill="#203c88"/><path d="M21.52 21.14l-2.38-2.74a1.84 1.84 0 0 1 .35-2.73 1.71 1.71 0 0 1 2.56 0l.51.59-1 .83-.44-.5a.63.63 0 1 0-.93.84l2.32 2.68a.6.6 0 0 0 .92.09.58.58 0 0 0 .06-.87l-.42-.49 1-.83.48.55a1.75 1.75 0 0 1-.28 2.59 1.8 1.8 0 0 1-2.75-.01zM23.68 14.04l-1.11.73-.67-1 3.38-2.3.67 1-1.1.75 3.32 4.89-1.17.79zM28 11.36l-1.23.62-.55-1.05 3.63-1.89.55 1.05-1.18.61 2.73 5.24-1.18.66zM32.89 7.77l1.94-.64a1.8 1.8 0 0 1 2.48 1.39 1.92 1.92 0 0 1-.2 2l1.85 2.68-1.38.46-1.57-2.45-.44.15.88 2.67-1.33.44zm2.88 2.47c.38-.12.52-.46.28-1.19s-.52-.91-.94-.77l-.48.16.65 2zM39.15 11.3l-.66-3.38a1.86 1.86 0 0 1 1.65-2.29 1.83 1.83 0 0 1 2.38 1.48l.66 3.38a1.87 1.87 0 0 1-1.65 2.28 1.82 1.82 0 0 1-2.38-1.47zm2.62-.53l-.68-3.47a.6.6 0 0 0-.76-.51.58.58 0 0 0-.49.76l.67 3.45a.64.64 0 1 0 1.26-.23zM45 9.38L43.21 5.2l1.49-.11 1 2.59.56-2.7 1.34-.1-1.16 4.41.2 2.78-1.41.1zM49.63 4.92l1.91.08 1.08 7.16-1.42-.06-.22-1.6-1.44-.06-.36 1.58-1.29-.06zm1.14 4.43l-.35-2.81-.65 2.77zM54.34 5.26l1.37.23-1 5.81 2 .33-.15 1.14-3.38-.56zM62.09 6.98l1.81.61-1 7.17-1.35-.46.24-1.6-1.37-.46-.78 1.42-1.22-.41zm-.12 4.58l.45-2.8-1.36 2.49zM66.52 8.63l1.26.6-2.55 5.31 1.83.88-.52 1.09-3.09-1.48zM70.86 10.77l1.82 1.15c1 .62 1.06 1.58.32 2.76s-1.71 1.69-2.76 1l-.59-.37-1.38 2.19-1.19-.73zm-.19 3.85c.35.22.73 0 1.15-.65s.4-1 0-1.2l-.42-.27-1.17 1.86zM75.98 14.24l1.49 1.2-3.39 6.4-1.11-.89.8-1.43-1.12-.91-1.25 1.06-1-.81zm-1.7 4.26l1.39-2.47-2.16 1.84z" fill="#fff"/><path d="M58.98 25.13c4.09-.06 6.4 1.3 7.74 3.92 1.58 3.08.32 7.4-1.82 9a9.63 9.63 0 0 1-3.63 1.63 6.72 6.72 0 0 1-3.44-.38c-2.83-1.06-4.14-2.65-4.88-5.83a7 7 0 0 1 .1-3.06 7.93 7.93 0 0 1 3.25-4.3c.75-.48 1.97-.51 2.68-.98zM52 42.53c-2.45.75-4.26 5.57-6.5 7.17-4 2.86-8.36-1.09-10.9-3a9.14 9.14 0 0 1-2-1.82c-.73-1-1.23-2.39-2.1-3.25.36-.28.85-.32 1.24-.57a7.11 7.11 0 0 0 2.39-3c1.79-4.23-1.64-8.54-4.68-9.47l-2.2-.1c-.56.36-1.36.34-1.91.67a6.77 6.77 0 0 0-2.87 4.21 6.46 6.46 0 0 0 3 7.55c.77.5 2.36 1.33 3.73.86a25.34 25.34 0 0 0 1 4.68 17.89 17.89 0 0 0 9.08 9 12.26 12.26 0 0 0 7.27.19c4.37-1.26 7.85-3.43 9.22-7.88.83-2.86-.69-6.18-3.77-5.24zm-23-2.68a3 3 0 0 1-1.72-.29c-2.12-.79-3.52-3.09-2.58-6a4.6 4.6 0 0 1 1.82-2.49c.29-.18.69-.19 1-.38 5.41-.11 6.9 7.88 1.44 9.17zM71.41 39.28c5.25-.06 6.57 7.27 5 12-1.39 4.14-4.1 7.35-8.32 8.7-2.49.8-8.25.74-10.52-.19a17.71 17.71 0 0 1-3.92-2.49 4.64 4.64 0 0 1-1.91-2h.48c1 .68 2.59.72 3.92 1.05 4.82 1.24 12.44-1.18 13.63-4.58 1.31-3.63-1.79-7.86-.48-11 .48-1 1.28-.88 2.12-1.49z" fill="#203c88" fill-rule="evenodd"/><path fill="#203c88" d="M72.98 63.24l-45.36.43-6.77-1.12 4-.53h49.59l1.36.53-2.82.69z"/><path d="M42.43 85.86l-.52-.09.15-1h1.32l.71.24-2.24 6.68-1.23-.41zM44.01 90.77l.08-.54 1.23.17-.06.46a.41.41 0 0 0 .35.53.45.45 0 0 0 .54-.43l.23-1.6a1.19 1.19 0 0 1-1 .3 1.14 1.14 0 0 1-1.07-1.39l.23-1.61a1.58 1.58 0 0 1 2-1.31 1.61 1.61 0 0 1 1.53 1.87l-.53 3.77a1.69 1.69 0 0 1-2 1.53 1.52 1.52 0 0 1-1.53-1.75zm2.5-2.39l.2-1.42a.472.472 0 1 0-.94-.09l-.21 1.49a.42.42 0 0 0 .38.5.5.5 0 0 0 .57-.44zM48.77 91.18v-.41l1.21-.06v.47c0 .35.19.56.49.55s.47-.22.43-1-.4-.94-.72-.92l-.41-.04-.06-1.19h.51c.39 0 .59-.22.55-1s-.24-.88-.5-.86-.41.27-.39.6v.43l-1.23.02v-.41a1.58 1.58 0 0 1 1.65-1.82c1 0 1.65.52 1.72 1.76 0 .79-.15 1.48-.77 1.73a1.51 1.51 0 0 1 1 1.55c.08 1.49-.77 2.12-1.65 2.17a1.54 1.54 0 0 1-1.83-1.57zM53.64 90.98l-.12-.53 1.25-.28.1.45a.41.41 0 0 0 .52.37.45.45 0 0 0 .35-.59l-.36-1.57a1.19 1.19 0 0 1-.83.64 1.14 1.14 0 0 1-1.49-.92l-.36-1.58a1.58 1.58 0 0 1 1.38-1.93 1.61 1.61 0 0 1 2.09 1.2l.85 3.72a1.69 1.69 0 0 1-1.33 2.14 1.52 1.52 0 0 1-2.05-1.12zm1.48-3.13l-.35-1.4a.463.463 0 1 0-.9.22l.34 1.47a.42.42 0 0 0 .53.33.5.5 0 0 0 .38-.62z" fill="#fff"/><circle cx="44.41" cy="44.94" r="2.08" fill="#6d1410"/><path d="M30.65 69.16h.94c0 .31.1.68.46.68s.37-.24.37-.47-.18-.49-.47-.76l-.49-.48a1.89 1.89 0 0 1-.69-1.44 1.25 1.25 0 0 1 1.35-1.32c.64 0 1.23.33 1.27 1.44h-.89c0-.37-.12-.66-.44-.66s-.36.19-.36.43.28.53.52.76l.45.44a2 2 0 0 1 .77 1.48 1.29 1.29 0 0 1-1.37 1.34 1.36 1.36 0 0 1-1.42-1.44zM33.86 69.64v-1.87a1 1 0 0 1 1.07-1 .9.9 0 0 1 1 .89v.41h-.67v-.3a.33.33 0 1 0-.65 0v1.85a.31.31 0 0 0 .33.35.31.31 0 0 0 .32-.32v-.34h.67v.38a.91.91 0 0 1-1 .93.94.94 0 0 1-1.07-.98zM36.35 66.85h.73v1.5h.69v-1.5h.73v3.71h-.73v-1.54h-.64v1.54h-.73zM39.59 66.84h1l.72 3.71h-.74l-.15-.78h-.75l-.15.83h-.68zm.71 2.29l-.24-1.46-.29 1.46zM41.69 66.85h1.78v.62h-1.05v.87h.84v.62h-.84v1h1.06v.63h-1.79zM43.92 66.85h1.07c.62 0 1 .34 1 1.1a1 1 0 0 1-.43 1l.48 1.63h-.77l-.38-1.47h-.24v1.47h-.73zm1 1.69c.21 0 .33-.15.33-.55s-.11-.54-.34-.54h-.27v1.08zM46.44 66.85h1.19c.53 0 .86.29.86.95s-.21.78-.49.86a.76.76 0 0 1 .51.83c0 .71-.35 1-.85 1h-1.22zm1 1.54c.21 0 .32-.16.32-.5s-.11-.45-.29-.45h-.3v1zm0 1.57c.2 0 .3-.18.3-.49s-.12-.48-.32-.48h-.25v1zM48.96 66.85h1.81v.62h-1.08v.87h.84v.62h-.84v1h1.08v.63h-1.81zM51.19 66.85h1.78v.62h-1.06v.87h.86v.62h-.84v1h1.04v.63h-1.78zM53.41 66.85h.73v1.64l.71-1.64h.72l-.66 1.45.67 2.26h-.81l-.43-1.65-.23.44v1.21h-.73zM45.43 71.02h1l.41 3 .45-3h1l.43 3 .41-3h.89l-.82 5.12h-.94l-.49-3.24-.51 3.25h-1zM50.35 75.17v-1.8a1 1 0 0 1 1.08-1 1 1 0 0 1 1.07 1v1.8a1 1 0 0 1-1.08 1 1 1 0 0 1-1.07-1zm1.41 0v-1.83a.31.31 0 0 0-.34-.34.31.31 0 0 0-.33.34v1.84a.335.335 0 1 0 .67 0zM52.96 72.42h.73v3.08h1.08v.63h-1.81zM55.05 75.2v-2.78h.72v2.75a.33.33 0 0 0 .33.37c.21 0 .32-.15.32-.37v-2.75h.7v2.76a1 1 0 0 1-1.07 1 .9.9 0 0 1-1-.98zM57.46 72.42h.72l.3 2.21.33-2.21h.7l.31 2.2.3-2.2h.65l-.6 3.72h-.68l-.34-2.37-.38 2.37h-.7zM61.12 72.42h1.78v.62h-1.05v.87h.84v.62h-.84v1h1.06v.63h-1.79zm1-1h.65l-.53.78h-.47z" fill="#6d1410"/></svg>